<svg version="1.1" xmlns="http://www.w3.org/2000/svg" viewBox="0 0 250 250"><desc>Created with Snap</desc><defs></defs><g transform="matrix(0.049,0,0,0.049,49.2016,165.096)"><rect x="-285.2" y="-3370.5999999999995" width="3665.4" height="5103.999999999999" style="" fill="#745296"></rect><g transform="matrix(20.912,0,0,20.912,578.482,-3063.4)"><g><path d="M35.638,31.398c0-0.018-0.004-0.035-0.004-0.052c0,0.001-0.002,0.002-0.002,0.003c0-0.002,0.006-0.006,0.006-0.008   c0-0.951-7.916-1.722-17.679-1.722c-9.767,0-17.682,0.771-17.682,1.722c0,0.002,0.005,0.006,0.005,0.008   c0,0-0.002-0.002-0.002-0.003c0,0.018-0.003,0.034-0.003,0.052c0,2.188-1.377,3.961,2.009,3.961h31.342   C37.474,35.359,35.638,33.586,35.638,31.398z" style="" fill="#ffffff"></path><path d="M22.892,4.237l0.575-3.153c0.09-0.5-0.24-0.979-0.739-1.069c-0.499-0.091-0.978,0.24-1.067,0.739l-0.449,2.465   L22.892,4.237z" style="" fill="#ffffff"></path><polygon points="21.411,12.368 22.23,7.863 20.549,6.845 19.729,11.351  " style="" fill="#ffffff"></polygon><polygon points="19.928,20.5 20.749,15.995 19.067,14.977 18.246,19.483  " style="" fill="#ffffff"></polygon><polygon points="18.445,28.632 19.268,24.126 17.586,23.108 16.765,27.615  " style="" fill="#ffffff"></polygon><path d="M15.699,50.745c0,0,0.004-0.001,0.004-0.002c0-0.001-0.003-0.003-0.003-0.004c0.266-1.674,6.217-8.525,10.318-13.083   h-3.122c-3.19,3.654-9.502,10.987-9.848,12.17c-0.649,2.207,4.024,22.048,3.103,24.753c-0.552,1.624-5.169,7.071-9.003,11.419   c0.613,0.449,1.332,0.863,2.156,1.223c3.214-3.575,8.795-9.947,9.479-11.848C19.455,73.519,14.909,52.99,15.699,50.745z" style="" fill="#ffffff"></path><path d="M5.226,83.697c3.2-3.616,7.338-8.48,7.922-10.1c0.67-1.854-3.877-22.383-3.086-24.627c0-0.001,0.003-0.002,0.003-0.003   c0.001-0.002-0.002-0.003-0.002-0.004c0.232-1.467,4.836-6.915,8.732-11.308H2.552l2.462,45.251   C5.046,83.175,5.125,83.438,5.226,83.697z" style="" fill="#ffffff"></path><path d="M30.091,37.655C28.42,39.551,19.109,50.156,18.687,51.6c-0.648,2.207,4.024,22.048,3.102,24.754   c-0.57,1.68-5.496,7.458-9.4,11.871c1.717,0.401,3.64,0.631,5.678,0.631c6.971,0,12.646-2.635,13.05-5.941h0.01l2.399-45.26H30.091   z" style="" fill="#ffffff"></path><path d="M87.163,94.556c0-0.34-0.309-1.438-0.688-1.438L68.03,93.331c-0.281-1.06-0.935-1.753-2.457-1.753H16.138   c-2.515,0-2.757,1.885-2.757,4.211S13.623,100,16.138,100h49.436c1.522,0,2.176-0.694,2.457-1.754l18.445,0.213   c0.379,0,0.688-1.098,0.688-1.438c0-0.249-0.165-0.899-0.401-1.232C86.998,95.455,87.163,94.805,87.163,94.556z" style="" fill="#ffffff"></path><path d="M89.011,60.762H34.438L33.759,73.56c0.554,0.873,1.57,1.437,3.37,1.437h46.438c2.698,0,3.658-1.25,3.901-2.94l2.649-11.331   C89.748,60.75,89.377,60.762,89.011,60.762z M49.613,73.364c0,0.258-0.208,0.467-0.465,0.467c-0.259,0-0.467-0.209-0.467-0.467   V62.863c0-0.258,0.208-0.466,0.467-0.466c0.257,0,0.465,0.208,0.465,0.466V73.364z M51.481,73.364c0,0.258-0.208,0.467-0.467,0.467   c-0.257,0-0.467-0.209-0.467-0.467V62.863c0-0.258,0.21-0.466,0.467-0.466c0.259,0,0.467,0.208,0.467,0.466V73.364z M59.883,73.364   c0,0.258-0.21,0.467-0.467,0.467c-0.259,0-0.467-0.209-0.467-0.467V62.863c0-0.258,0.208-0.466,0.467-0.466   c0.257,0,0.467,0.208,0.467,0.466V73.364z M61.749,73.364c0,0.258-0.208,0.467-0.467,0.467c-0.257,0-0.467-0.209-0.467-0.467   V62.863c0-0.258,0.21-0.466,0.467-0.466c0.259,0,0.467,0.208,0.467,0.466V73.364z M70.15,73.364c0,0.258-0.209,0.467-0.467,0.467   c-0.259,0-0.467-0.209-0.467-0.467V62.863c0-0.258,0.208-0.466,0.467-0.466c0.258,0,0.467,0.208,0.467,0.466V73.364z    M72.017,73.364c0,0.258-0.208,0.467-0.466,0.467s-0.466-0.209-0.466-0.467V62.863c0-0.258,0.208-0.466,0.466-0.466   s0.466,0.208,0.466,0.466V73.364z" style="" fill="#ffffff"></path><path d="M91.772,53.528l-0.195-0.924v-0.009c0,0-0.412-0.168-0.58-0.233c-1.259-0.494-4.267-1.633-5.507-1.633H35.121l-0.153,0.051   l-0.431,8.116H89.01C94.396,58.896,92.454,56.608,91.772,53.528z" style="" fill="#ffffff"></path></g><g display="none"><g display="inline"><path d="M34.068,33.629c0-0.017-0.003-0.032-0.003-0.049c0,0.001-0.002,0.002-0.002,0.003c0-0.002,0.005-0.005,0.005-0.008    c0-0.891-7.412-1.612-16.555-1.612c-9.144,0-16.555,0.722-16.555,1.612c0,0.002,0.004,0.005,0.004,0.008    c0,0-0.002-0.002-0.002-0.003c0,0.017-0.002,0.032-0.002,0.049c0,2.048-1.29,3.709,1.881,3.709h29.347    C35.788,37.338,34.068,35.678,34.068,33.629z" style="" fill="#ffffff"></path><g><path d="M22.134,8.196l0.538-2.953c0.085-0.467-0.225-0.916-0.691-1c-0.468-0.085-0.916,0.225-1,0.692L20.56,7.244L22.134,8.196z     " style="" fill="#ffffff"></path><polygon points="20.747,15.811 21.515,11.592 19.94,10.639 19.172,14.858    " style="" fill="#ffffff"></polygon><polygon points="19.358,23.425 20.128,19.206 18.553,18.253 17.784,22.473    " style="" fill="#ffffff"></polygon><polygon points="17.971,31.04 18.74,26.82 17.166,25.867 16.396,30.087    " style="" fill="#ffffff"></polygon></g></g><g display="inline"><path d="M15.399,51.745c0,0,0.003-0.001,0.003-0.002c0-0.001-0.002-0.002-0.002-0.004c0.248-1.567,5.82-7.983,9.661-12.25h-2.923    c-2.987,3.422-8.897,10.288-9.222,11.396c-0.607,2.066,3.769,20.645,2.905,23.178c-0.517,1.52-4.84,6.621-8.43,10.692    c0.574,0.421,1.247,0.809,2.019,1.146c3.01-3.348,8.235-9.314,8.877-11.094C18.916,73.069,14.659,53.847,15.399,51.745z" style="" fill="#ffffff"></path><path d="M5.592,82.601c2.997-3.386,6.871-7.941,7.418-9.458c0.627-1.736-3.63-20.958-2.89-23.06c0-0.001,0.003-0.002,0.003-0.002    c0.001-0.002-0.002-0.003-0.002-0.004c0.218-1.374,4.528-6.475,8.177-10.588H3.088l2.306,42.371    C5.424,82.111,5.498,82.357,5.592,82.601z" style="" fill="#ffffff"></path><path d="M28.875,39.488c-1.564,1.775-10.283,11.706-10.679,13.057c-0.607,2.066,3.769,20.645,2.904,23.179    c-0.534,1.573-5.146,6.983-8.803,11.116c1.608,0.376,3.408,0.592,5.316,0.592c6.527,0,11.841-2.468,12.22-5.564h0.009    l2.247-42.379H28.875z" style="" fill="#ffffff"></path></g></g><g display="none"><g display="inline"><path fill="#ffffff" d="M86.45,60.702H39.519c-0.414,0-0.827-0.011-1.229-0.041l2.189,9.35c0.192,1.393,0.985,2.423,3.208,2.423    h38.276c2.224,0,3.016-1.031,3.216-2.423l2.184-9.339C87.058,60.692,86.752,60.702,86.45,60.702z M53.979,71.089    c0,0.212-0.172,0.385-0.384,0.385c-0.213,0-0.385-0.172-0.385-0.385v-8.655c0-0.213,0.172-0.385,0.385-0.385    c0.212,0,0.384,0.172,0.384,0.385V71.089z M55.518,71.089c0,0.212-0.172,0.385-0.385,0.385c-0.212,0-0.385-0.172-0.385-0.385    v-8.655c0-0.213,0.173-0.385,0.385-0.385c0.213,0,0.385,0.172,0.385,0.385V71.089z M62.442,71.089    c0,0.212-0.173,0.385-0.385,0.385c-0.213,0-0.385-0.172-0.385-0.385v-8.655c0-0.213,0.172-0.385,0.385-0.385    c0.212,0,0.385,0.172,0.385,0.385V71.089z M63.98,71.089c0,0.212-0.172,0.385-0.385,0.385c-0.212,0-0.385-0.172-0.385-0.385    v-8.655c0-0.213,0.173-0.385,0.385-0.385c0.213,0,0.385,0.172,0.385,0.385V71.089z M70.905,71.089    c0,0.212-0.172,0.385-0.385,0.385s-0.385-0.172-0.385-0.385v-8.655c0-0.213,0.172-0.385,0.385-0.385s0.385,0.172,0.385,0.385    V71.089z M72.443,71.089c0,0.212-0.172,0.385-0.384,0.385c-0.213,0-0.385-0.172-0.385-0.385v-8.655    c0-0.213,0.172-0.385,0.385-0.385c0.212,0,0.384,0.172,0.384,0.385V71.089z" style=""></path></g><g display="inline"><path fill="#ffffff" d="M86.449,59.164H39.519c-5.094,0-3.032-1.893-2.316-4.424c0.039-0.146,0.2-0.762,0.2-0.762V53.97    l4.631-1.539h41.516c1.023,0,3.501,0.939,4.539,1.346c0.139,0.054,0.478,0.192,0.478,0.192v0.008l0.161,0.762    C89.289,57.278,90.889,59.164,86.449,59.164z" style=""></path></g><path display="inline" fill="#ffffff" d="M89.479,91.471c0-0.319-0.259-1.347-0.577-1.347l-15.467,0.2   c-0.235-0.993-0.783-1.642-2.06-1.642H29.923c-2.108,0-2.312,1.765-2.312,3.943s0.203,3.943,2.312,3.943h41.452   c1.276,0,1.824-0.649,2.06-1.642l15.467,0.199c0.318,0,0.577-1.028,0.577-1.346c0-0.233-0.139-0.842-0.337-1.154   C89.34,92.312,89.479,91.704,89.479,91.471z" style=""></path></g><g display="none"><path display="inline" fill="#ffffff" d="M82.638,24.244c0-0.414-0.336-1.75-0.75-1.75l-77.5,1c-0.414,0-0.75,0.336-0.75,0.75   s0.336,0.75,0.75,0.75l58.125,0.75l-58.125,0.75c-0.414,0-0.75,0.336-0.75,0.75s0.336,0.75,0.75,0.75l77.5,1   c0.414,0,0.75-1.336,0.75-1.75c0-0.303-0.181-1.094-0.438-1.5C82.457,25.338,82.638,24.547,82.638,24.244z" style=""></path><path display="inline" fill="#ffffff" d="M2.229,36.557c0,2.831,0.264,5.125,3.004,5.125h53.879c2.741,0,2.905-2.294,2.905-5.125   l0,0c0-2.831-0.164-5.125-2.905-5.125H5.232C2.492,31.432,2.229,33.726,2.229,36.557L2.229,36.557z" style=""></path></g><desc>Created with Snap</desc><defs></defs></g><g><g transform="matrix(1,0,0,-1,0,0)"><path d="M522 555Q457 619 378 619Q303 619 234 562Q147 490 114 376Q102 335 102 308Q102 281 104 266Q104 167 171 114Q234 65 332 65Q466 76 589 168Q623 194 661 218Q675 218 689 214Q704 210 704 191Q605 105 537 67Q411 -1 309 -1Q302 -1 296 -1Q185 -1 106 68Q22 141 22 250Q22 332 51 407Q81 482 132 539Q184 597 254 631Q325 665 406 665Q475 665 496 646Q522 623 522 555ZM1243 365Q1201 395 1135 395Q1073 395 1020 372Q920 330 883 264Q867 234 867 200Q867 194 867 166Q867 139 877 92Q887 46 887 -2Q866 -3 853 -7Q840 -11 831 -11Q822 -11 815 -3Q809 5 801 28Q800 34 797 62Q794 90 789 130Q785 170 779 217Q774 265 769 311Q758 411 752 458Q752 482 787 482Q808 482 820 464Q832 447 839 424Q846 402 848 380Q851 358 853 349Q985 467 1181 467Q1203 467 1227 466Q1233 467 1242 467Q1251 467 1260 455Q1271 441 1271 421Q1271 371 1243 365ZM1344 470L1407 470Q1420 283 1429 37Q1423 6 1381 6Q1370 6 1358 10Q1347 15 1344 23L1344 470ZM1314 606Q1314 641 1355 641Q1382 641 1399 629Q1402 618 1402 607Q1402 597 1394 587Q1386 577 1370 577Q1354 577 1338 584Q1322 592 1314 606ZM1814 258Q1924 258 1924 202Q1924 160 1863 104Q1772 21 1618 -29Q1611 -29 1602 -15Q1594 -1 1589 6Q1585 14 1583 16Q1698 54 1772 108Q1822 144 1822 167Q1822 190 1763 190Q1704 190 1590 162Q1538 164 1500 199Q1467 230 1467 261Q1467 293 1485 319Q1503 346 1533 369Q1563 392 1603 411Q1701 458 1806 458Q1837 458 1866 452Q1890 452 1894 431Q1898 410 1898 362Q1839 389 1765 389Q1673 389 1613 352Q1551 316 1549 258Q1549 230 1590 230L1663 238Q1757 258 1814 258ZM2082 401Q2218 448 2317 448Q2443 448 2485 382Q2504 351 2504 315Q2504 265 2472 212Q2441 159 2389 116Q2268 17 2095 -7Q2095 -18 2095 -43Q2096 -67 2096 -97Q2097 -127 2097 -161Q2098 -195 2099 -226Q2102 -303 2103 -314Q2105 -325 2105 -332Q2105 -357 2089 -370Q2073 -382 2047 -382Q2042 -382 2037 -382L2021 422Q2030 435 2045 434Q2060 433 2069 426Q2078 419 2082 401ZM2374 366Q2341 383 2303 383Q2266 383 2229 376Q2145 360 2105 305Q2087 279 2087 241Q2087 237 2087 233L2087 60Q2293 106 2379 188Q2429 235 2429 285Q2429 338 2374 366ZM3071 434L2767 -377Q2746 -424 2717 -424Q2703 -424 2696 -412Q2690 -399 2696 -382Q2718 -289 2759 -170Q2801 -51 2815 -10Q2780 25 2705 130Q2551 346 2551 367Q2551 368 2552 369L2590 407Q2669 334 2796 159Q2828 115 2847 85Q2868 127 2880 157Q2892 188 2899 206Q2907 225 2920 256Q2954 339 3014 467Q3023 471 3033 471Q3058 471 3069 458Q3073 453 3073 446Q3073 440 3071 434Z" style="" fill="#ffffff"></path></g></g><g transform="matrix(1,0,0,1,207,1411.2)"><g transform="matrix(1,0,0,-1,0,0)"><path d="M490 491L401 493Q366 493 320 486Q318 447 312 385Q291 165 291 99Q291 34 293 7L199 0L230 494L17 506Q9 506 4 519Q0 532 0 543Q0 554 9 567Q18 580 30 580Q103 577 177 570Q314 558 410 558L472 560Q545 562 617 576Q633 573 637 526Q638 516 638 510Q572 491 490 491ZM1156 365Q1114 395 1048 395Q986 395 933 372Q833 330 796 264Q780 234 780 200Q780 194 780 166Q780 139 790 92Q800 46 800 -2Q779 -3 766 -7Q753 -11 744 -11Q735 -11 728 -3Q722 5 714 28Q713 34 710 62Q707 90 702 130Q698 170 692 217Q687 265 682 311Q671 411 665 458Q665 482 700 482Q721 482 733 464Q745 447 752 424Q759 402 761 380Q764 358 766 349Q898 467 1094 467Q1116 467 1140 466Q1146 467 1155 467Q1164 467 1173 455Q1184 441 1184 421Q1184 371 1156 365ZM1434 70Q1522 70 1699 150Q1710 150 1717 142Q1724 135 1724 125Q1684 57 1571 19Q1458 -19 1360 6Q1249 35 1225 131Q1223 150 1223 182Q1223 214 1239 266Q1256 319 1296 366Q1336 413 1390 440Q1444 467 1505 467Q1563 467 1635 427Q1669 408 1689 384Q1709 360 1709 335Q1709 328 1708 321Q1706 260 1649 244Q1624 237 1591 237L1447 243Q1375 243 1337 212Q1315 195 1306 161Q1331 70 1434 70ZM1612 379Q1590 395 1566 402Q1542 409 1526 409Q1510 409 1474 398Q1438 388 1410 375Q1341 343 1341 308Q1421 301 1461 301Q1572 301 1611 320Q1635 330 1635 345Q1635 363 1612 379ZM2177 166Q2102 48 1977 20Q1948 14 1924 14Q1901 14 1885 14Q1870 15 1851 19Q1832 23 1816 32Q1779 53 1779 91Q1775 109 1775 131Q1775 154 1785 191Q1795 228 1821 271Q1848 314 1886 350Q1965 426 2057 448Q2084 454 2106 454Q2129 454 2147 451Q2205 451 2225 372Q2238 322 2240 232Q2243 143 2245 94Q2248 46 2258 6L2199 6Q2195 33 2193 54Q2191 75 2189 93Q2184 135 2177 166ZM2173 321Q2173 379 2116 379Q2109 380 2102 380Q2029 380 1948 310Q1910 278 1883 238Q1843 181 1843 136Q1843 77 1911 66Q2001 68 2083 148Q2118 183 2141 224Q2173 279 2173 321ZM2456 96L2458 256Q2458 294 2451 321L2296 321L2294 390L2444 390L2444 648Q2447 657 2456 666Q2470 680 2479 680Q2489 680 2496 678Q2503 676 2511 664Q2527 598 2527 465Q2527 432 2530 400Q2562 404 2594 404Q2594 404 2646 404Q2665 404 2681 406L2678 334L2532 338L2537 -7Q2519 -15 2506 -15Q2456 -15 2456 96Z" style="" fill="#ffffff"></path></g></g></g></svg>